<?xml version="1.0" encoding="utf-8"?>
<!-- Generator: Adobe Illustrator 27.2.0, SVG Export Plug-In . SVG Version: 6.00 Build 0)  -->
<svg version="1.1" id="Layer_1" xmlns="http://www.w3.org/2000/svg" xmlns:xlink="http://www.w3.org/1999/xlink" x="0px" y="0px"
	 viewBox="0 0 12 12" style="enable-background:new 0 0 12 12;" xml:space="preserve">
<path d="M3,8.5c0-1,2-1.6,3-1.6s3,0.6,3,1.6V9H3 M7.5,4.5C7.5,5.3,6.8,6,6,6S4.5,5.3,4.5,4.5S5.2,3,6,3S7.5,3.7,7.5,4.5 M1.5,2.5v7
	c0,0.6,0.4,1,1,1h7c0.6,0,1-0.4,1-1v-7c0-0.6-0.4-1-1-1h-7C1.9,1.5,1.5,1.9,1.5,2.5z"/>
</svg>
