<?xml version="1.0" encoding="utf-8"?>
<!-- Generator: Adobe Illustrator 27.2.0, SVG Export Plug-In . SVG Version: 6.00 Build 0)  -->
<svg version="1.1" id="Layer_1" xmlns="http://www.w3.org/2000/svg" xmlns:xlink="http://www.w3.org/1999/xlink" x="0px" y="0px"
	 viewBox="0 0 12 12" style="enable-background:new 0 0 12 12;" xml:space="preserve">
<style type="text/css">
	.st0{fill:#59BED3;}
</style>
<path class="st0" d="M8.6,3.9H6.4V2.4h4.1c0.3,0,0.6-0.3,0.6-0.6V0.4h-0.8v1.3H6.2c-0.3,0-0.6,0.3-0.6,0.6v1.7H3.4c-1.7,0-3,1.3-3,3
	v2.4c0,1.2,1,2.1,2.1,2.1h0c0.6,0,1.2-0.3,1.6-0.8l1.2-1.5h1.1l1.2,1.6c0.7,0.9,2.1,1.1,3,0.4c0.5-0.4,0.8-1,0.8-1.7V6.9
	C11.6,5.3,10.3,3.9,8.6,3.9z M10.9,9.5c0,0.8-0.6,1.4-1.4,1.4c-0.4,0-0.8-0.2-1.1-0.5L6.9,8.4H5.1l-1.5,1.8
	c-0.3,0.3-0.7,0.5-1.1,0.5h0c-0.8,0-1.4-0.6-1.4-1.4V6.9c0-1.2,1-2.2,2.2-2.2h5.2c1.2,0,2.2,1,2.2,2.2V9.5z"/>
<path class="st0" d="M8.4,5.8h0.8v0.8H8.4V5.8z M8.4,7.7h0.8v0.8H8.4V7.7z M7.5,6.8h0.8v0.8H7.5V6.8z M9.4,6.8h0.8v0.8H9.4V6.8z
	 M3.6,5.8H2.8v0.9H1.9v0.8h0.9v0.9h0.8V7.5h0.9V6.8H3.6V5.8z"/>
</svg>
