<?xml version="1.0" encoding="utf-8"?>
<!-- Generator: Adobe Illustrator 27.2.0, SVG Export Plug-In . SVG Version: 6.00 Build 0)  -->
<svg version="1.1" id="Layer_1" xmlns="http://www.w3.org/2000/svg" xmlns:xlink="http://www.w3.org/1999/xlink" x="0px" y="0px"
	 viewBox="0 0 12 12" style="enable-background:new 0 0 12 12;" xml:space="preserve">
<style type="text/css">
	.st0{fill:#59BED3;}
</style>
<path class="st0" d="M4.8,5.5C4.5,5.5,4.3,5.7,4.3,6c0,0.3,0.2,0.5,0.5,0.5c0.3,0,0.5-0.2,0.5-0.5C5.3,5.7,5.1,5.5,4.8,5.5z
	 M6.5,5.5C6.3,5.5,6,5.7,6,6c0,0.3,0.2,0.5,0.5,0.5C6.8,6.5,7,6.3,7,6C7,5.7,6.8,5.5,6.5,5.5z"/>
<path class="st0" d="M8.8,1.5H2.5c-0.5,0-1,0.4-1,1c0,0,0,0,0,0v6.4c0,0.5,0.4,1,1,1h5.4L7.6,9l0.6,0.6l0.6,0.5l1,0.9V2.5
	C9.8,1.9,9.4,1.5,8.8,1.5C8.8,1.5,8.8,1.5,8.8,1.5z M7,7.7c0,0-0.2-0.2-0.3-0.4c0.6-0.2,0.9-0.6,0.9-0.6C7.4,6.9,7.2,7,7,7
	C6.4,7.3,5.7,7.4,5.1,7.2C4.8,7.2,4.6,7.1,4.4,7C4.3,7,4.2,6.9,4,6.9c0,0,0,0,0,0c0,0,0,0,0,0c-0.1,0-0.1-0.1-0.1-0.1
	s0.2,0.4,0.8,0.6C4.5,7.5,4.4,7.7,4.4,7.7C3.3,7.7,2.9,7,2.9,7c0-1.5,0.7-2.8,0.7-2.8c0.7-0.5,1.3-0.5,1.3-0.5l0,0.1
	C4.1,4,3.7,4.4,3.7,4.4S3.8,4.3,4,4.3C4.5,4,4.9,4,5.1,4c0,0,0.1,0,0.1,0C6,3.8,6.8,4,7.6,4.4c0,0-0.4-0.4-1.2-0.6l0.1-0.1
	c0,0,0.7,0,1.3,0.5c0,0,0.7,1.2,0.7,2.8C8.5,7,8.1,7.7,7,7.7z"/>
</svg>
