<?xml version="1.0" encoding="utf-8"?>
<!-- Generator: Adobe Illustrator 27.2.0, SVG Export Plug-In . SVG Version: 6.00 Build 0)  -->
<svg version="1.1" id="Layer_1" xmlns="http://www.w3.org/2000/svg" xmlns:xlink="http://www.w3.org/1999/xlink" x="0px" y="0px"
	 viewBox="0 0 12 12" style="enable-background:new 0 0 12 12;" xml:space="preserve">
<style type="text/css">
	.st0{fill:#59BED3;}
</style>
<path class="st0" d="M8.3,2.9C8.3,2.9,8.6,3.2,8.3,2.9C8,2.5,7.8,2,7.8,1.5H6.2v6.2c0,0.7-0.6,1.2-1.3,1.2c-0.7,0-1.3-0.6-1.3-1.3
	c0-0.9,0.8-1.5,1.7-1.2V4.8C3.6,4.6,2.1,5.9,2.1,7.6c0,1.7,1.4,2.9,2.8,2.9c1.6,0,2.8-1.3,2.8-2.8V4.5C8.4,5,9.1,5.2,9.9,5.2V3.7
	C9.9,3.7,9,3.7,8.3,2.9z"/>
</svg>
