<?xml version="1.0" encoding="utf-8"?>
<!-- Generator: Adobe Illustrator 27.2.0, SVG Export Plug-In . SVG Version: 6.00 Build 0)  -->
<svg version="1.1" id="Layer_1" xmlns="http://www.w3.org/2000/svg" xmlns:xlink="http://www.w3.org/1999/xlink" x="0px" y="0px"
	 viewBox="0 0 12 12" style="enable-background:new 0 0 12 12;" xml:space="preserve">
<style type="text/css">
	.st0{fill:#59BED3;}
</style>
<path class="st0" d="M9.8,1.1H3.4c-0.8,0-1.5,0.7-1.5,1.5v7.9c0,0.2,0.2,0.4,0.4,0.4H9c0.2,0,0.4-0.2,0.4-0.4S9.2,10.1,9,10.1H2.6
	c0-0.4,0.3-0.8,0.8-0.8h6.4c0.2,0,0.4-0.2,0.4-0.4V1.5C10.1,1.3,10,1.1,9.8,1.1z M5.6,1.9h2.2v3.4L7,4.6c-0.1-0.1-0.3-0.1-0.5,0
	L5.6,5.2V1.9z M9.4,8.6h-6c-0.3,0-0.5,0.1-0.8,0.2V2.6c0-0.4,0.3-0.8,0.8-0.8h1.5V6c0,0.2,0.2,0.4,0.4,0.4c0.1,0,0.2,0,0.2-0.1
	l1.3-1l1.3,1c0.1,0,0.1,0.1,0.2,0.1c0.2,0,0.4-0.2,0.4-0.4V1.9h0.8V8.6z"/>
</svg>
