<?xml version="1.0" encoding="utf-8"?>
<!-- Generator: Adobe Illustrator 27.2.0, SVG Export Plug-In . SVG Version: 6.00 Build 0)  -->
<svg version="1.1" id="Layer_1" xmlns="http://www.w3.org/2000/svg" xmlns:xlink="http://www.w3.org/1999/xlink" x="0px" y="0px"
	 viewBox="0 0 12 12" style="enable-background:new 0 0 12 12;" xml:space="preserve">
<path d="M3.5,11c-0.3,0-0.5-0.1-0.7-0.3c-0.2-0.2-0.3-0.4-0.3-0.7c0-0.3,0.1-0.5,0.3-0.7C3,9.1,3.2,9,3.5,9C3.8,9,4,9.1,4.2,9.3
	C4.4,9.5,4.5,9.7,4.5,10c0,0.3-0.1,0.5-0.3,0.7C4,10.9,3.8,11,3.5,11z M8.5,11c-0.3,0-0.5-0.1-0.7-0.3c-0.2-0.2-0.3-0.4-0.3-0.7
	c0-0.3,0.1-0.5,0.3-0.7C8,9.1,8.2,9,8.5,9C8.8,9,9,9.1,9.2,9.3C9.4,9.5,9.5,9.7,9.5,10c0,0.3-0.1,0.5-0.3,0.7C9,10.9,8.8,11,8.5,11z
	 M3.5,8.5C3.1,8.5,2.8,8.3,2.7,8c-0.2-0.3-0.2-0.7,0-1l0.7-1.2L1.5,2H1C0.8,2,0.7,2,0.6,1.9S0.5,1.6,0.5,1.5c0-0.1,0-0.3,0.1-0.4
	C0.7,1,0.9,1,1,1h0.8C1.9,1,2,1,2.1,1.1c0.1,0.1,0.1,0.1,0.2,0.2L2.6,2H10c0.2,0,0.4,0.1,0.5,0.2s0.1,0.3,0,0.5L8.7,6
	C8.6,6.1,8.4,6.3,8.3,6.4C8.1,6.5,8,6.5,7.8,6.5H4.1l-0.6,1H9c0.1,0,0.3,0,0.4,0.1C9.5,7.7,9.5,7.9,9.5,8c0,0.1,0,0.3-0.1,0.4
	C9.3,8.5,9.1,8.5,9,8.5H3.5z"/>
</svg>
