<?xml version="1.0" encoding="utf-8"?>
<!-- Generator: Adobe Illustrator 27.2.0, SVG Export Plug-In . SVG Version: 6.00 Build 0)  -->
<svg version="1.1" id="Layer_1" xmlns="http://www.w3.org/2000/svg" xmlns:xlink="http://www.w3.org/1999/xlink" x="0px" y="0px"
	 viewBox="0 0 12 12" style="enable-background:new 0 0 12 12;" xml:space="preserve">
<style type="text/css">
	.st0{fill:#59BED3;}
</style>
<path class="st0" d="M7.8,7H7.4L7.2,6.9C7.7,6.3,8,5.5,8,4.8C8,3,6.5,1.5,4.8,1.5S1.5,3,1.5,4.8S3,8,4.8,8c0.8,0,1.5-0.3,2.1-0.8
	L7,7.4v0.4l2.5,2.5l0.7-0.7L7.8,7z M4.8,7C3.5,7,2.5,6,2.5,4.8s1-2.2,2.2-2.2S7,3.5,7,4.8S6,7,4.8,7z"/>
</svg>
