<?xml version="1.0" encoding="utf-8"?>
<!-- Generator: Adobe Illustrator 27.2.0, SVG Export Plug-In . SVG Version: 6.00 Build 0)  -->
<svg version="1.1" id="Layer_1" xmlns="http://www.w3.org/2000/svg" xmlns:xlink="http://www.w3.org/1999/xlink" x="0px" y="0px"
	 viewBox="0 0 12 12" style="enable-background:new 0 0 12 12;" xml:space="preserve">
<style type="text/css">
	.st0{fill:#59BED3;}
</style>
<path class="st0" d="M3.9,1h4.2C9.7,1,11,2.3,11,3.9v4.2C11,9.7,9.7,11,8.1,11H3.9C2.3,11,1,9.7,1,8.1V3.9C1,2.3,2.3,1,3.9,1 M3.8,2
	C2.8,2,2,2.8,2,3.8l0,0v4.4c0,1,0.8,1.8,1.8,1.8h4.4c1,0,1.8-0.8,1.8-1.8c0,0,0,0,0,0V3.8C10,2.8,9.2,2,8.2,2H3.8 M8.6,2.8
	C9,2.8,9.2,3,9.2,3.4S9,4,8.6,4S8,3.7,8,3.4S8.3,2.8,8.6,2.8 M6,3.5c1.4,0,2.5,1.1,2.5,2.5S7.4,8.5,6,8.5S3.5,7.4,3.5,6
	S4.6,3.5,6,3.5 M6,4.5C5.2,4.5,4.5,5.2,4.5,6S5.2,7.5,6,7.5S7.5,6.8,7.5,6S6.8,4.5,6,4.5z"/>
</svg>
